<svg xmlns="http://www.w3.org/2000/svg" xmlns:xlink="http://www.w3.org/1999/xlink" width="348.495" height="53.316" viewBox="0 0 348.495 53.316">
  <defs>
    <clipPath id="clip-path">
      <path id="パス_35" data-name="パス 35" d="M6.054,106.87A20.587,20.587,0,1,0,26.641,86.3,20.577,20.577,0,0,0,6.054,106.87" fill="none"/>
    </clipPath>
  </defs>
  <g id="グループ_16" data-name="グループ 16" transform="translate(-1653 -1552.212)">
    <path id="パス_30" data-name="パス 30" d="M26.658,132.528a25.658,25.658,0,1,1,25.658-25.657,25.687,25.687,0,0,1-25.658,25.657" transform="translate(1653 1472)" fill="#0052a2"/>
    <path id="パス_31" data-name="パス 31" d="M26.658,82.212A24.658,24.658,0,1,1,2,106.87,24.658,24.658,0,0,1,26.658,82.212m0-2A26.658,26.658,0,1,0,53.316,106.87,26.689,26.689,0,0,0,26.658,80.212" transform="translate(1653 1472)" fill="#fff"/>
    <path id="パス_32" data-name="パス 32" d="M47.227,106.87A20.57,20.57,0,1,1,26.658,86.3,20.569,20.569,0,0,1,47.227,106.87" transform="translate(1653 1472)" fill="#fff"/>
    <path id="パス_33" data-name="パス 33" d="M4.5,114.133H45.6l-6.429-8.088H31.636V98.458H24.162v1.969H19.689V94.868H7.049Z" transform="translate(1653 1472)" fill="#0052a2"/>
    <g id="グループ_15" data-name="グループ 15" transform="translate(1653 1472)">
      <g id="グループ_14" data-name="グループ 14" clip-path="url(#clip-path)">
        <path id="パス_34" data-name="パス 34" d="M69.5,115.1a21.9,21.9,0,0,0-6.479-11.955c-5.168-4.981-11.007-7.507-17.362-7.507-.24,0-.474,0-.6.012-6.473-.18-12.341,2.2-17.577,7.053-9.628,1.009-15.237,5.709-15.037,12.7a1.935,1.935,0,0,0,1.935,1.878h3.024a6.1,6.1,0,0,0,12.076,0l24.808,0a6.1,6.1,0,0,0,12.079,0h1.213A1.933,1.933,0,0,0,69.5,115.1m-46.055,3.545a2.254,2.254,0,1,1,2.256-2.253,2.256,2.256,0,0,1-2.256,2.253M46.937,99.551a19.314,19.314,0,0,1,8.9,2.873h-8.9Zm13.392,19.091a2.254,2.254,0,1,1,2.256-2.253,2.256,2.256,0,0,1-2.256,2.253" fill="#e95a00"/>
      </g>
    </g>
    <path id="パス_36" data-name="パス 36" d="M92.841,95.757,89.4,112.028c-1.19,5.634-2.176,7.616-2.562,8.4H75.422a32.885,32.885,0,0,0,3.031-8.088l1.437-6.8H76.617l-1.229,5.821c-.785,3.718-2.2,7.429-3.459,9.065H60.855c1.384-2.359,2.624-7.206,3.05-9.222l1.2-5.664H61.673l2.067-9.787h3.431s.63-2.99,1.1-5.224H79.788c-.471,2.234-1.1,5.224-1.1,5.224Z" transform="translate(1653 1472)" fill="#fff"/>
    <path id="パス_37" data-name="パス 37" d="M97.662,90.534h11.074l-4.274,20.237a39.917,39.917,0,0,1-3.425,9.66H90.245c1.384-2.359,2.624-7.205,3.05-9.222,0,0,.2-.974,4.367-20.675M123.6,106.993,121.023,119.2a75.236,75.236,0,0,1-16.7,1.45L110.693,90.5h11.893l-3.648,17.279c1.977-.285,3.673-.568,4.665-.787Z" transform="translate(1653 1472)" fill="#fff"/>
    <path id="パス_38" data-name="パス 38" d="M157.727,90.534c-1.219,2.645-5.5,10.859-8.677,16.051a153.28,153.28,0,0,1-9.625,13.842H123.916a178.588,178.588,0,0,0,10.748-14.54,143.794,143.794,0,0,0,8.559-15.357Z" transform="translate(1653 1472)" fill="#fff"/>
    <path id="パス_39" data-name="パス 39" d="M161.922,90.5h11.893l-4.826,22.846H157.1Zm29.1.029-3.044,14.413c-1.491,7.051-4.116,13.974-5.032,15.485H170.8c1.383-2.36,3.767-10.825,4.192-12.839l3.6-17.058Z" transform="translate(1653 1472)" fill="#fff"/>
    <path id="パス_40" data-name="パス 40" d="M219.732,106.554l-2.608,12.336A197.791,197.791,0,0,1,193,120.655h-5.349l6.371-30.15h12.3l-3.756,17.781a117.313,117.313,0,0,0,17.162-1.732" transform="translate(1653 1472)" fill="#fff"/>
    <path id="パス_41" data-name="パス 41" d="M252.617,102.807l-2.374,11.239a122.6,122.6,0,0,1-14.225,4.186,159.723,159.723,0,0,1-17.071,2.487l2.372-11.239a125.384,125.384,0,0,0,17.074-2.486,146.3,146.3,0,0,0,14.224-4.187m-8.682-1.2L223.2,100.573l2.175-10.289,20.732,1.038Z" transform="translate(1653 1472)" fill="#fff"/>
    <path id="パス_42" data-name="パス 42" d="M287.236,91.322c-4.231,13.028-5.293,16.113-5.293,16.113-1,3.113-4.426,12.022-5.2,13H264.821a89.626,89.626,0,0,0,3.7-8.434h-5.533l-1.018,2.738h-9.944l8.126-23.414ZM266.218,103.09h5.507c.226-.629.432-1.322.682-2.043h-5.442Z" transform="translate(1653 1472)" fill="#fff"/>
    <path id="パス_43" data-name="パス 43" d="M317.513,95.757l-3.436,16.271c-1.192,5.634-2.177,7.616-2.564,8.4H300.092a32.833,32.833,0,0,0,3.032-8.088l1.436-6.8h-3.272l-1.229,5.821c-.784,3.718-2.2,7.429-3.459,9.065H285.526c1.384-2.359,2.625-7.206,3.051-9.222l1.2-5.664h-3.431l2.067-9.787h3.43s.63-2.99,1.1-5.224h11.514c-.471,2.234-1.1,5.224-1.1,5.224Z" transform="translate(1653 1472)" fill="#fff"/>
    <path id="パス_44" data-name="パス 44" d="M321.187,98.654h27.308l-2.853,13.5H318.334Z" transform="translate(1653 1472)" fill="#fff"/>
  </g>
</svg>
