<svg xmlns="http://www.w3.org/2000/svg" xmlns:xlink="http://www.w3.org/1999/xlink" width="346.495" height="49.316" viewBox="0 0 346.495 49.316">
  <defs>
    <clipPath id="clip-path">
      <rect id="長方形_4" data-name="長方形 4" width="346.495" height="49.316" transform="translate(0 0)" fill="none"/>
    </clipPath>
    <clipPath id="clip-path-2">
      <path id="パス_5" data-name="パス 5" d="M4.055,24.658A20.586,20.586,0,1,0,24.64,4.089,20.577,20.577,0,0,0,4.055,24.658" fill="none"/>
    </clipPath>
  </defs>
  <g id="グループ_7" data-name="グループ 7" transform="translate(0 0)">
    <g id="グループ_2" data-name="グループ 2">
      <g id="グループ_1" data-name="グループ 1" clip-path="url(#clip-path)">
        <path id="パス_1" data-name="パス 1" d="M49.316,24.658A24.658,24.658,0,1,1,24.658,0,24.658,24.658,0,0,1,49.316,24.658" fill="#0052a2"/>
        <path id="パス_2" data-name="パス 2" d="M45.227,24.658A20.57,20.57,0,1,1,24.658,4.089,20.569,20.569,0,0,1,45.227,24.658" fill="#fff"/>
        <path id="パス_3" data-name="パス 3" d="M2.5,31.92H43.6l-6.429-8.088H29.636V16.245H22.162v1.969H17.689V12.655H5.049Z" fill="#0052a2"/>
      </g>
    </g>
    <g id="グループ_4" data-name="グループ 4">
      <g id="グループ_3" data-name="グループ 3" clip-path="url(#clip-path-2)">
        <path id="パス_4" data-name="パス 4" d="M67.5,32.884A21.9,21.9,0,0,0,61.02,20.929c-5.168-4.981-11.007-7.507-17.362-7.507-.24,0-.474,0-.6.012-6.473-.18-12.341,2.2-17.577,7.053C15.856,21.5,10.247,26.2,10.447,33.189a1.935,1.935,0,0,0,1.935,1.878h3.024a6.1,6.1,0,0,0,12.076,0l24.808,0a6.1,6.1,0,0,0,12.079,0h1.213a1.933,1.933,0,0,0,1.917-2.18M21.444,36.429A2.255,2.255,0,1,1,23.7,34.176a2.256,2.256,0,0,1-2.256,2.253M44.937,17.338a19.314,19.314,0,0,1,8.9,2.873h-8.9ZM58.329,36.429a2.255,2.255,0,1,1,2.256-2.253,2.256,2.256,0,0,1-2.256,2.253" fill="#e95a00"/>
      </g>
    </g>
    <g id="グループ_6" data-name="グループ 6">
      <g id="グループ_5" data-name="グループ 5" clip-path="url(#clip-path)">
        <path id="パス_6" data-name="パス 6" d="M90.841,13.545,87.4,29.816c-1.19,5.634-2.176,7.616-2.562,8.4H73.422a32.885,32.885,0,0,0,3.031-8.088l1.437-6.8H74.617l-1.229,5.821c-.785,3.718-2.2,7.429-3.459,9.065H58.855c1.384-2.359,2.624-7.206,3.05-9.222l1.2-5.664H59.673l2.067-9.787h3.431s.63-2.99,1.1-5.224H77.788c-.471,2.234-1.1,5.224-1.1,5.224Z" fill="#0252a2"/>
        <path id="パス_7" data-name="パス 7" d="M95.662,8.321h11.074l-4.275,20.237a39.956,39.956,0,0,1-3.424,9.66H88.245c1.383-2.359,2.624-7.2,3.049-9.222,0,0,.205-.974,4.368-20.675M121.6,24.78l-2.575,12.208a75.252,75.252,0,0,1-16.7,1.45l6.368-30.149h11.892l-3.647,17.279c1.977-.285,3.673-.568,4.664-.787Z" fill="#0252a2"/>
        <path id="パス_8" data-name="パス 8" d="M155.727,8.321c-1.219,2.645-5.5,10.859-8.677,16.051a153.28,153.28,0,0,1-9.625,13.842H121.916a178.589,178.589,0,0,0,10.748-14.54,143.794,143.794,0,0,0,8.559-15.357Z" fill="#0252a2"/>
        <path id="パス_9" data-name="パス 9" d="M159.921,8.292h11.893l-4.826,22.846H155.1Zm29.1.029-3.044,14.413c-1.491,7.051-4.116,13.974-5.032,15.485H168.8c1.383-2.36,3.767-10.825,4.192-12.839l3.6-17.058Z" fill="#0252a2"/>
        <path id="パス_10" data-name="パス 10" d="M217.732,24.341l-2.608,12.336A197.791,197.791,0,0,1,191,38.442h-5.349l6.371-30.15h12.3L200.57,26.073a117.312,117.312,0,0,0,17.162-1.732" fill="#0252a2"/>
        <path id="パス_11" data-name="パス 11" d="M250.617,20.595l-2.374,11.239a122.6,122.6,0,0,1-14.225,4.186,159.721,159.721,0,0,1-17.071,2.487l2.372-11.239a125.382,125.382,0,0,0,17.074-2.486,146.3,146.3,0,0,0,14.224-4.187m-8.682-1.2L221.2,18.361l2.175-10.289L244.109,9.11Z" fill="#0252a2"/>
        <path id="パス_12" data-name="パス 12" d="M285.236,9.109c-4.231,13.028-5.293,16.113-5.293,16.113-1,3.113-4.426,12.022-5.2,13H262.821a89.626,89.626,0,0,0,3.7-8.434h-5.533l-1.018,2.738h-9.944l8.126-23.414ZM264.218,20.877h5.507c.226-.629.432-1.322.682-2.043h-5.442Z" fill="#0252a2"/>
        <path id="パス_13" data-name="パス 13" d="M315.513,13.545l-3.436,16.271c-1.192,5.634-2.177,7.616-2.564,8.4H298.092a32.832,32.832,0,0,0,3.032-8.088l1.436-6.8h-3.272l-1.229,5.821c-.784,3.718-2.2,7.429-3.459,9.065H283.526c1.384-2.359,2.625-7.206,3.051-9.222l1.2-5.664h-3.431l2.067-9.787h3.43s.63-2.99,1.1-5.224h11.514c-.471,2.234-1.1,5.224-1.1,5.224Z" fill="#0252a2"/>
        <path id="パス_14" data-name="パス 14" d="M319.187,16.441h27.308l-2.853,13.5H316.334Z" fill="#0252a2"/>
      </g>
    </g>
  </g>
</svg>
